<?xml version="1.0" encoding="utf-8"?>
<!-- Generator: Adobe Illustrator 24.3.0, SVG Export Plug-In . SVG Version: 6.00 Build 0)  -->
<svg version="1.1" id="Capa_1" xmlns="http://www.w3.org/2000/svg" xmlns:xlink="http://www.w3.org/1999/xlink" x="0px" y="0px"
	 viewBox="0 0 54 54" style="enable-background:new 0 0 54 54;" xml:space="preserve">
<style type="text/css">
	.st0{fill:#FFFFFF;stroke:#FFFFFF;stroke-width:1.2;stroke-linejoin:bevel;stroke-miterlimit:10;}
	.st1{fill:#FFFFFF;}
</style>
<g>
	<path class="st0" d="M26.83,4.05c3.05-0.03,5.97,0.28,8.85,0.96c3.98,0.94,7.7,2.49,11.01,4.94c0.41,0.3,0.78,0.65,1.18,0.97
		c0.16,0.13,0.2,0.27,0.16,0.46c-0.34,1.77-0.66,3.54-1.01,5.31c-0.05,0.24,0.01,0.33,0.22,0.44c0.65,0.31,1.28,0.66,1.93,0.98
		c0.2,0.1,0.24,0.22,0.17,0.42c-0.54,1.59-1.03,3.2-1.61,4.78c-0.83,2.24-1.82,4.41-2.9,6.54c-3.49,6.88-7.9,13.09-13.52,18.41
		c-1.3,1.23-2.71,2.36-4.06,3.54c-0.18,0.16-0.29,0.14-0.47,0c-4.8-3.8-8.89-8.25-12.39-13.26c-2.43-3.47-4.52-7.14-6.3-10.99
		c-1.24-2.68-2.32-5.42-3.18-8.25c-0.08-0.27-0.15-0.55-0.24-0.83c-0.05-0.17-0.01-0.26,0.14-0.33c0.63-0.32,1.24-0.66,1.87-0.97
		c0.18-0.09,0.21-0.17,0.17-0.35c-0.33-1.64-0.63-3.29-0.98-4.92c-0.12-0.57,0.01-0.94,0.48-1.32c1.94-1.57,4.07-2.8,6.35-3.78
		c2.76-1.19,5.64-1.95,8.61-2.38C23.17,4.15,25.04,4.03,26.83,4.05z M46,18.53c0.02-0.05,0.05-0.11,0.06-0.17
		c0.55-2.01,1.02-4.04,1.32-6.1c0.17-1.19,0.33-0.78-0.59-1.57c-0.08-0.07-0.17-0.14-0.26-0.21c-3-2.27-6.37-3.76-9.99-4.73
		c-2.26-0.61-4.56-0.96-6.89-1.12c-2.99-0.21-5.97-0.08-8.94,0.4c-3.5,0.56-6.83,1.61-9.97,3.26c-1.5,0.79-2.92,1.71-4.21,2.82
		c-0.15,0.13-0.22,0.25-0.18,0.45c0.06,0.31,0.1,0.62,0.14,0.93c0.32,2.04,0.78,4.05,1.33,6.04c0.7,2.53,1.54,5.02,2.53,7.46
		c0.23,0.56,0.47,1.12,0.71,1.7c2.07-7.83,6.86-13,14.66-15.27C33.65,10.58,40.36,12.75,46,18.53z M24.41,27.39
		c0.13,0.03,0.19,0.05,0.25,0.07c0.98,0.18,1.96,0.37,2.94,0.55c2.76,0.52,5.53,1.03,8.29,1.55c1.75,0.33,3.51,0.66,5.26,0.99
		c0.18,0.03,0.3,0.02,0.39-0.18c0.6-1.37,1.25-2.73,1.83-4.11c0.92-2.18,1.69-4.42,2.35-6.7c0.05-0.17,0.03-0.29-0.09-0.42
		c-1.24-1.4-2.64-2.62-4.2-3.65c-0.28-0.19-0.46-0.16-0.72,0.03c-4.72,3.45-9.45,6.88-14.18,10.32
		C25.84,26.35,25.16,26.85,24.41,27.39z M30.67,46.29c4.12-4.44,7.5-9.32,10.26-14.71c-5.53-0.55-11-1.1-16.53-1.65
		C26.5,35.4,28.58,40.82,30.67,46.29z M40.74,15.1c-0.11-0.08-0.17-0.12-0.24-0.16c-1.61-0.91-3.32-1.59-5.12-2.02
		c-2.53-0.59-5.07-0.68-7.63-0.27c-1.18,0.19-2.33,0.49-3.46,0.89c-0.14,0.05-0.23,0.1-0.24,0.28c-0.08,2.02-0.18,4.05-0.27,6.07
		c-0.05,1.2-0.11,2.4-0.15,3.61c-0.02,0.54,0,1.08,0,1.66C29.3,21.83,34.99,18.48,40.74,15.1z M26.91,49.99
		c0.09-0.08,0.17-0.13,0.23-0.2c0.91-0.88,1.81-1.77,2.73-2.65c0.16-0.15,0.16-0.27,0.06-0.45c-0.9-1.68-1.79-3.36-2.68-5.05
		c-1.64-3.09-3.27-6.18-4.91-9.26c-0.28-0.52-0.55-1.04-0.85-1.59c-0.09,0.1-0.15,0.17-0.2,0.24c-1.63,2.05-3.26,4.1-4.89,6.14
		c-0.13,0.16-0.11,0.28-0.01,0.44c2.63,4.04,5.67,7.74,9.14,11.09C25.98,49.13,26.44,49.56,26.91,49.99z M26.92,50.74
		c-9.97-9.06-16.45-20.17-19.94-33.15c-0.58,0.3-1.13,0.59-1.68,0.89c-0.04,0.02-0.05,0.15-0.04,0.21c0.11,0.4,0.22,0.8,0.35,1.2
		c1,3.1,2.25,6.11,3.69,9.03c2.36,4.8,5.21,9.29,8.6,13.43c2.65,3.23,5.59,6.17,8.85,8.79c0.18,0.14,0.3,0.18,0.49,0.01
		c1.15-1.01,2.34-1.99,3.47-3.03c2.88-2.67,5.43-5.63,7.74-8.8c2.18-3,4.1-6.16,5.79-9.46c1.18-2.32,2.25-4.68,3.15-7.13
		c0.48-1.32,0.9-2.66,1.34-4c0.03-0.08,0.01-0.23-0.03-0.26c-0.6-0.33-1.2-0.64-1.82-0.96C43.39,30.52,36.91,41.66,26.92,50.74z
		 M14.61,21.03c2.06,1.35,4.08,2.69,6.15,4.05c0.87-3.74,1.73-7.43,2.61-11.19C19.71,15.45,16.83,17.8,14.61,21.03z M13.87,22.29
		c-0.05,0.04-0.07,0.05-0.08,0.07c-1.1,1.96-1.84,4.05-2.22,6.27c-0.05,0.3,0.05,0.38,0.35,0.32c2.17-0.45,4.35-0.89,6.52-1.34
		c0.3-0.06,0.6-0.13,0.96-0.21C17.53,25.67,15.7,23.98,13.87,22.29z M15.23,35.86c1.26-2.05,2.46-4.02,3.71-6.05
		c-2.24,0.21-4.41,0.41-6.67,0.63C13.27,32.26,14.23,34.03,15.23,35.86z"/>
	<path class="st1" d="M33.52,9.2c-0.05,0.71-0.35,0.97-1.01,0.86c-0.59-0.1-1.18-0.21-1.77-0.35c-0.51-0.12-0.73-0.47-0.65-1
		c0.06-0.35,0.12-0.69,0.21-1.03c0.12-0.48,0.41-0.72,0.89-0.65c0.69,0.09,1.39,0.23,2.06,0.41c0.45,0.12,0.57,0.5,0.37,1.04
		c-0.2-0.04-0.41-0.07-0.61-0.13c-0.06-0.01-0.1-0.09-0.15-0.14c-0.1-0.1-0.19-0.24-0.31-0.27c-0.33-0.09-0.67-0.15-1.01-0.2
		c-0.29-0.04-0.43,0.06-0.5,0.35c-0.03,0.12-0.05,0.24-0.07,0.35c-0.1,0.51-0.01,0.65,0.49,0.76c0.29,0.06,0.58,0.12,0.87,0.14
		c0.11,0.01,0.23-0.11,0.35-0.16c0.08-0.04,0.17-0.11,0.24-0.1C33.13,9.1,33.32,9.16,33.52,9.2z"/>
	<path class="st1" d="M23.66,7.83C23.43,7.87,23.21,7.91,23,7.94c-0.04,0.01-0.11-0.01-0.13-0.03c-0.16-0.28-0.41-0.2-0.64-0.15
		c-0.27,0.05-0.54,0.11-0.81,0.18c-0.23,0.06-0.34,0.21-0.31,0.45c0,0.01,0,0.02,0,0.03c0.14,0.86,0.17,1.09,1.11,0.84
		c0.18-0.05,0.37-0.06,0.54-0.12c0.11-0.04,0.25-0.15,0.27-0.24c0.03-0.21,0.16-0.24,0.32-0.26c0.16-0.02,0.32-0.05,0.48-0.07
		c0.21,0.68,0.02,1.02-0.63,1.17c-0.52,0.12-1.05,0.23-1.58,0.32c-0.71,0.12-1.06-0.13-1.21-0.84c-0.06-0.29-0.11-0.58-0.15-0.87
		c-0.07-0.43,0.1-0.79,0.51-0.9c0.71-0.18,1.44-0.33,2.17-0.42C23.38,6.95,23.62,7.26,23.66,7.83z"/>
	<path class="st1" d="M27.85,6.74c0.28,0,0.52,0,0.81,0c0,0.42,0,0.82,0,1.22c0,0.22,0,0.44,0,0.67c-0.01,0.49-0.22,0.77-0.71,0.79
		c-0.65,0.04-1.3,0.04-1.94,0c-0.54-0.03-0.73-0.28-0.73-0.82c-0.01-0.55,0-1.09-0.01-1.64c0-0.18,0.05-0.24,0.24-0.24
		c0.67,0.02,0.55-0.07,0.56,0.53c0.01,0.35-0.01,0.7,0.01,1.05c0.01,0.38,0.12,0.48,0.49,0.49c0.28,0.01,0.56,0.01,0.83,0
		c0.33-0.01,0.45-0.14,0.45-0.46C27.85,7.81,27.85,7.29,27.85,6.74z"/>
</g>
</svg>
