<?xml version="1.0" encoding="utf-8"?>
<!-- Generator: Adobe Illustrator 24.3.0, SVG Export Plug-In . SVG Version: 6.00 Build 0)  -->
<svg version="1.1" id="Capa_1" xmlns="http://www.w3.org/2000/svg" xmlns:xlink="http://www.w3.org/1999/xlink" x="0px" y="0px"
	 viewBox="0 0 54 54" style="enable-background:new 0 0 54 54;" xml:space="preserve">
<style type="text/css">
	.st0{fill:#FFFFFF;}
</style>
<g>
	<path class="st0" d="M47.95,41.17c2.42-0.01,3.86-1.44,3.86-3.84c0-9.26-0.01-18.53-0.02-27.79c0-2.28-1.45-3.76-3.73-3.8
		c-1.71-0.03-3.42,0.01-5.13,0.02c0,0,0,0,0,0c-1.58-0.02-3.16-0.07-4.74-0.05c-4.44,0.08-8.05,1.83-10.69,5.44
		c-0.41,0.56-0.58,0.6-1,0.01c-2.65-3.64-6.28-5.4-10.75-5.46c-3.2-0.04-6.39-0.01-9.59-0.01c-2.53,0-3.97,1.43-3.97,3.95
		c0,5.94,0,11.88,0,17.82c0,3.36-0.01,6.71,0.01,10.07c0.01,2.07,1.48,3.58,3.5,3.61c1.36,0.02,2.71-0.01,4.07-0.02
		c2.03,0.01,4.07-0.02,6.1,0.03c2.31,0.06,4.42,0.71,6.33,2.06c1.58,1.12,2.57,2.69,3.62,4.24c0.75,1.12,1.58,1.12,2.36,0.02
		c0.3-0.42,0.57-0.86,0.86-1.29c2.21-3.35,5.34-4.99,9.34-5.01C41.56,41.16,44.76,41.18,47.95,41.17z M25.85,24.1
		c0,6.34,0,12.68,0,19.3c-0.84-0.96-1.57-1.63-2.39-2.2c-2.1-1.49-4.45-2.3-7.03-2.37c-1.71-0.04-3.42,0-5.12,0
		c-1.74-0.01-3.48-0.02-5.23-0.03c-1.17-0.01-1.55-0.38-1.56-1.55c-0.01-3.26,0-6.52,0-9.77c0-5.84,0-11.68,0-17.52
		c0-1.52,0.29-1.81,1.8-1.81c3.26,0,6.52-0.01,9.78,0.01c4.43,0.02,7.42,2.35,9.58,6c0.2,0.33,0.14,0.69,0.14,1.04
		C25.84,18.17,25.84,21.13,25.85,24.1 M28.67,42.81c-0.11,0.11-0.23,0.21-0.53,0.49c0-7.05,0-13.9,0-20.75
		c0.01-2.26,0.06-4.52,0.01-6.77c-0.03-0.99,0.26-1.78,0.79-2.59c1.78-2.71,4.22-4.39,7.42-4.92c0.81-0.14,2.4-0.11,3.61-0.12
		c0,0,0,0,0,0c2.03,0,5.64-0.12,7.67-0.11c1.42,0.01,1.83,0.45,1.83,1.87c-0.01,9.03-0.02,18.07-0.03,27.1
		c0,1.43-0.35,1.78-1.76,1.78c-3.07,0-6.13,0.03-9.2,0C34.63,38.75,31.36,40.05,28.67,42.81z"/>
	<path class="st0" d="M50.6,45.85c-0.25-0.03-0.51-0.01-0.77-0.01c-3.9,0-7.8,0-11.7,0c-1.29,0-2.58-0.01-3.87,0.01
		c-0.58,0.01-1.06,0.23-1.3,0.82c-0.19,0.48-0.04,0.88,0.29,1.24c0.34,0.37,0.78,0.4,1.24,0.4c2.61-0.01,5.22,0,7.83,0
		c1.48,0,2.96,0,4.45,0c1.26,0,2.51,0.02,3.77-0.01c0.74-0.02,1.24-0.42,1.26-1.19C51.82,46.32,51.33,45.93,50.6,45.85z"/>
	<path class="st0" d="M20.32,45.99c-0.33-0.1-0.7-0.12-1.04-0.13c-2.51-0.01-5.03-0.01-7.54-0.01c0,0.01,0,0.01,0,0.02
		c-2.64,0-5.29,0-7.93,0c-0.72,0-1.38,0.14-1.56,0.98c-0.18,0.81,0.45,1.4,1.51,1.4c5.19,0.02,10.38,0.03,15.56,0.06
		c0.36,0,0.7-0.07,1.03-0.19c0.49-0.17,0.73-0.56,0.74-1.04C21.1,46.57,20.84,46.14,20.32,45.99z"/>
	<path class="st0" d="M34.72,18.08c1.3-0.41,2.63-0.59,3.99-0.58c2.32,0.01,4.64,0.02,6.96,0.01c0.93,0,1.46-0.43,1.47-1.15
		c0-0.72-0.53-1.16-1.47-1.17c-1.38-0.01-2.77,0-4.16,0c0,0.01,0,0.01,0,0.02c-1.19,0-2.38,0-3.58,0c-1.36,0.01-2.68,0.27-3.97,0.69
		c-0.75,0.25-1.17,0.69-0.96,1.5C33.19,18.12,33.83,18.36,34.72,18.08z"/>
	<path class="st0" d="M45.64,31.71c0.81,0.01,1.42-0.23,1.5-1.13c0.07-0.75-0.53-1.24-1.49-1.25c-1.35-0.01-2.71,0-4.06,0
		c0,0,0,0,0,0.01c-0.45,0-0.9,0.01-1.35,0c-2.07-0.04-4.13-0.02-6.12,0.65c-1,0.33-1.37,0.85-1.14,1.59
		c0.23,0.74,0.81,0.97,1.81,0.68c1.34-0.39,2.7-0.57,4.09-0.56C41.13,31.7,43.39,31.69,45.64,31.71z"/>
	<path class="st0" d="M45.52,22.3c-2.64,0-5.28,0.02-7.92,0.02c-1.27,0-2.49,0.26-3.69,0.66c-0.77,0.26-1.1,0.78-0.89,1.56
		c0.21,0.76,0.87,0.89,1.48,0.68c2.26-0.79,4.58-0.52,6.52-0.57c1.76,0,3.14,0.01,4.52,0c1.05-0.01,1.63-0.47,1.6-1.25
		C47.12,22.7,46.56,22.3,45.52,22.3z"/>
	<path class="st0" d="M20.42,30.15c-0.77-0.32-1.58-0.54-2.42-0.64c-3.24-0.38-6.5-0.1-9.75-0.18c-0.19,0-0.4,0.01-0.56,0.1
		c-0.52,0.28-0.89,0.7-0.75,1.32c0.14,0.65,0.6,0.91,1.28,0.93c2.99,0.05,5.99-0.15,8.98,0.13c0.94,0.09,1.81,0.42,2.67,0.61
		c0.67-0.03,1.11-0.33,1.25-0.93C21.26,30.88,20.97,30.38,20.42,30.15z"/>
	<path class="st0" d="M20.58,16.08c-0.24-0.15-0.53-0.24-0.8-0.32c-2.35-0.72-4.77-0.61-6.5-0.58c-2.17,0-3.65-0.02-5.13,0.01
		c-0.77,0.01-1.23,0.5-1.22,1.22c0.01,0.7,0.48,1.1,1.21,1.11c0.23,0,0.45-0.01,0.68,0c3.65,0.18,7.35-0.49,10.94,0.71
		c0.57,0.19,1.07-0.16,1.31-0.74C21.32,16.88,21.09,16.41,20.58,16.08z"/>
	<path class="st0" d="M19.48,22.74c-2.18-0.64-4.41-0.34-6.29-0.42c-1.9,0-3.48,0.01-5.06,0c-0.7-0.01-1.13,0.36-1.21,1
		c-0.08,0.66,0.33,1.09,0.95,1.28c0.27,0.08,0.57,0.07,0.86,0.07c2.35,0,4.7,0.02,7.05-0.01c1.07-0.01,2.11,0.13,3.14,0.41
		c1.33,0.36,1.99,0.18,2.21-0.6C21.36,23.68,20.78,23.12,19.48,22.74z"/>
</g>
</svg>
